<svg xmlns="http://www.w3.org/2000/svg" viewBox="-190 -310 380 310" width="380" height="310">
<g>
  <path d="M -185,-172 L -2,-303 C 2,-306 6,-306 10,-303 L 187,-172 C 130,-181 64,-186 0,-186 C -64,-186 -129,-181 -185,-172 Z" fill="#E0302B" stroke="#141414" stroke-width="7" stroke-linejoin="round"/>

  <path d="M 52,-258 L 88,-260 L 90,-214 L 54,-213 Z" fill="#8B5A2B" stroke="#141414" stroke-width="5" stroke-linejoin="round"/>
  <path d="M 48,-262 L 93,-264 L 92,-254 L 50,-253 Z" fill="#7A4F2A" stroke="#141414" stroke-width="4" stroke-linejoin="round"/>

  <path d="M -160,-172 C -161,-114 -161,-56 -160,0 L 160,0 C 161,-56 161,-114 160,-172 C 92,-177 -92,-177 -160,-172 Z" fill="#F5F1E6" stroke="#141414" stroke-width="6" stroke-linejoin="round"/>

  <path d="M -154,-173 L -110,-175 L -109,-140 L -154,-139 Z" fill="#ABD3E5" stroke="#141414" stroke-width="5" stroke-linejoin="round"/>
  <path d="M -132,-174 L -131,-140" stroke="#FFFFFF" stroke-width="3" stroke-linecap="round"/>
  <path d="M -153,-157 L -110,-158" stroke="#FFFFFF" stroke-width="3" stroke-linecap="round"/>

  <path d="M 109,-140 L 110,-175 L 154,-173 L 154,-139 Z" fill="#ABD3E5" stroke="#141414" stroke-width="5" stroke-linejoin="round"/>
  <path d="M 132,-174 L 132,-140" stroke="#FFFFFF" stroke-width="3" stroke-linecap="round"/>
  <path d="M 110,-157 L 154,-158" stroke="#FFFFFF" stroke-width="3" stroke-linecap="round"/>

  <path d="M -30,-48 C -31,-32 -31,-16 -30,0 L 30,0 C 31,-16 31,-32 30,-48 C 15,-56 -15,-56 -30,-48 Z" fill="#7A4F2A" stroke="#141414" stroke-width="6" stroke-linejoin="round"/>
  <circle cx="20" cy="-24" r="3.5" fill="#F4C430" stroke="#141414" stroke-width="2"/>
</g>
</svg>
