<svg xmlns="http://www.w3.org/2000/svg" viewBox="-210 -270 420 270" width="420" height="270">
<g>
<path d="M -170,0 C -180,-90 -150,-180 -80,-230 C -40,-255 40,-255 80,-230 C 150,-180 180,-90 170,0 Z" fill="#A0683A" stroke="#141414" stroke-width="7" stroke-linejoin="round"/>
<g fill="#7A4F2A">
<path d="M -34,-232 C -46,-240 -42,-252 -26,-254 C -10,-256 -2,-246 -10,-238 C -18,-232 -28,-228 -34,-232 Z"/>
<path d="M 20,-238 C 30,-248 46,-244 50,-232 C 52,-224 42,-216 30,-220 C 22,-222 16,-232 20,-238 Z"/>
<path d="M -4,-208 C -14,-214 -12,-224 0,-226 C 12,-228 20,-220 14,-212 C 8,-206 2,-204 -4,-208 Z"/>
</g>
<g transform="translate(-47,-20) rotate(94)"><rect x="-32" y="-8" width="64" height="16" rx="8" fill="#EFE6D2" stroke="#141414" stroke-width="5"/><circle cx="-32" cy="0" r="13" fill="#EFE6D2" stroke="#141414" stroke-width="5"/><circle cx="32" cy="0" r="13" fill="#EFE6D2" stroke="#141414" stroke-width="5"/></g>
<g transform="translate(49,-11) rotate(83)"><rect x="-28" y="-8" width="56" height="16" rx="8" fill="#EFE6D2" stroke="#141414" stroke-width="5"/><circle cx="-28" cy="0" r="13" fill="#EFE6D2" stroke="#141414" stroke-width="5"/><circle cx="28" cy="0" r="13" fill="#EFE6D2" stroke="#141414" stroke-width="5"/></g>
<g transform="translate(-99,-17) rotate(8)"><rect x="-33" y="-8" width="66" height="16" rx="8" fill="#EFE6D2" stroke="#141414" stroke-width="5"/><circle cx="-33" cy="0" r="13" fill="#EFE6D2" stroke="#141414" stroke-width="5"/><circle cx="33" cy="0" r="13" fill="#EFE6D2" stroke="#141414" stroke-width="5"/></g>
<g transform="translate(103,-21) rotate(92)"><rect x="-33" y="-8" width="66" height="16" rx="8" fill="#EFE6D2" stroke="#141414" stroke-width="5"/><circle cx="-33" cy="0" r="13" fill="#EFE6D2" stroke="#141414" stroke-width="5"/><circle cx="33" cy="0" r="13" fill="#EFE6D2" stroke="#141414" stroke-width="5"/></g>
<g transform="translate(-66,-45) rotate(-9)"><rect x="-30" y="-8" width="60" height="16" rx="8" fill="#EFE6D2" stroke="#141414" stroke-width="5"/><circle cx="-30" cy="0" r="13" fill="#EFE6D2" stroke="#141414" stroke-width="5"/><circle cx="30" cy="0" r="13" fill="#EFE6D2" stroke="#141414" stroke-width="5"/></g>
<g transform="translate(64,-47) rotate(2)"><rect x="-28" y="-8" width="56" height="16" rx="8" fill="#EFE6D2" stroke="#141414" stroke-width="5"/><circle cx="-28" cy="0" r="13" fill="#EFE6D2" stroke="#141414" stroke-width="5"/><circle cx="28" cy="0" r="13" fill="#EFE6D2" stroke="#141414" stroke-width="5"/></g>
<path d="M -29,0 Q 0,-18 29,0" transform="translate(-112,-47) rotate(-7)" fill="none" stroke="#141414" stroke-width="10" stroke-linecap="round"/><path d="M -29,0 Q 0,-18 29,0" transform="translate(-112,-47) rotate(-7)" fill="none" stroke="#EFE6D2" stroke-width="6" stroke-linecap="round"/>
<g transform="translate(119,-44) rotate(84)"><rect x="-31" y="-8" width="62" height="16" rx="8" fill="#EFE6D2" stroke="#141414" stroke-width="5"/><circle cx="-31" cy="0" r="13" fill="#EFE6D2" stroke="#141414" stroke-width="5"/><circle cx="31" cy="0" r="13" fill="#EFE6D2" stroke="#141414" stroke-width="5"/></g>
<path d="M -26,0 Q 0,-22 26,0" transform="translate(-56,-68) rotate(9)" fill="none" stroke="#141414" stroke-width="10" stroke-linecap="round"/><path d="M -26,0 Q 0,-22 26,0" transform="translate(-56,-68) rotate(9)" fill="none" stroke="#EFE6D2" stroke-width="6" stroke-linecap="round"/>
<g transform="translate(52,-69) rotate(6)"><rect x="-32" y="-8" width="64" height="16" rx="8" fill="#EFE6D2" stroke="#141414" stroke-width="5"/><circle cx="-32" cy="0" r="13" fill="#EFE6D2" stroke="#141414" stroke-width="5"/><circle cx="32" cy="0" r="13" fill="#EFE6D2" stroke="#141414" stroke-width="5"/></g>
<g transform="translate(-121,-73) rotate(1) scale(1.0)"><path d="M -30,6 C -34,-6 -24,-16 -8,-18 C 6,-20 20,-14 26,-2 C 20,2 10,-2 0,2 C -10,6 -20,10 -30,6 Z" fill="#EFE6D2" stroke="#141414" stroke-width="5.1" stroke-linejoin="round"/></g>
<g transform="translate(116,-68) rotate(7)"><rect x="-32" y="-8" width="64" height="16" rx="8" fill="#EFE6D2" stroke="#141414" stroke-width="5"/><circle cx="-32" cy="0" r="13" fill="#EFE6D2" stroke="#141414" stroke-width="5"/><circle cx="32" cy="0" r="13" fill="#EFE6D2" stroke="#141414" stroke-width="5"/></g>
<g transform="translate(-48,-92) rotate(-11) scale(1.1)"><path d="M -30,6 C -34,-6 -24,-16 -8,-18 C 6,-20 20,-14 26,-2 C 20,2 10,-2 0,2 C -10,6 -20,10 -30,6 Z" fill="#EFE6D2" stroke="#141414" stroke-width="4.7" stroke-linejoin="round"/></g>
<path d="M -30,0 Q 0,-17 30,0" transform="translate(52,-90) rotate(-5)" fill="none" stroke="#141414" stroke-width="10" stroke-linecap="round"/><path d="M -30,0 Q 0,-17 30,0" transform="translate(52,-90) rotate(-5)" fill="none" stroke="#EFE6D2" stroke-width="6" stroke-linecap="round"/>
<path d="M -24,0 Q 0,-20 24,0" transform="translate(-110,-96) rotate(3)" fill="none" stroke="#141414" stroke-width="10" stroke-linecap="round"/><path d="M -24,0 Q 0,-20 24,0" transform="translate(-110,-96) rotate(3)" fill="none" stroke="#EFE6D2" stroke-width="6" stroke-linecap="round"/>
<path d="M -25,0 Q 0,-18 25,0" transform="translate(103,-97) rotate(-3)" fill="none" stroke="#141414" stroke-width="10" stroke-linecap="round"/><path d="M -25,0 Q 0,-18 25,0" transform="translate(103,-97) rotate(-3)" fill="none" stroke="#EFE6D2" stroke-width="6" stroke-linecap="round"/>
<g transform="translate(-164,-89) rotate(8) scale(1.1)"><path d="M -30,6 C -34,-6 -24,-16 -8,-18 C 6,-20 20,-14 26,-2 C 20,2 10,-2 0,2 C -10,6 -20,10 -30,6 Z" fill="#EFE6D2" stroke="#141414" stroke-width="4.6" stroke-linejoin="round"/></g>
<g transform="translate(168,-92) rotate(87)"><rect x="-26" y="-8" width="52" height="16" rx="8" fill="#EFE6D2" stroke="#141414" stroke-width="5"/><circle cx="-26" cy="0" r="13" fill="#EFE6D2" stroke="#141414" stroke-width="5"/><circle cx="26" cy="0" r="13" fill="#EFE6D2" stroke="#141414" stroke-width="5"/></g>
<g transform="translate(-39,-123) rotate(90)"><rect x="-27" y="-8" width="54" height="16" rx="8" fill="#EFE6D2" stroke="#141414" stroke-width="5"/><circle cx="-27" cy="0" r="13" fill="#EFE6D2" stroke="#141414" stroke-width="5"/><circle cx="27" cy="0" r="13" fill="#EFE6D2" stroke="#141414" stroke-width="5"/></g>
<g transform="translate(40,-122) rotate(2)"><rect x="-31" y="-8" width="62" height="16" rx="8" fill="#EFE6D2" stroke="#141414" stroke-width="5"/><circle cx="-31" cy="0" r="13" fill="#EFE6D2" stroke="#141414" stroke-width="5"/><circle cx="31" cy="0" r="13" fill="#EFE6D2" stroke="#141414" stroke-width="5"/></g>
<path d="M -27,0 Q 0,-17 27,0" transform="translate(-100,-118) rotate(-11)" fill="none" stroke="#141414" stroke-width="10" stroke-linecap="round"/><path d="M -27,0 Q 0,-17 27,0" transform="translate(-100,-118) rotate(-11)" fill="none" stroke="#EFE6D2" stroke-width="6" stroke-linecap="round"/>
<g transform="translate(99,-121) rotate(83)"><rect x="-29" y="-8" width="58" height="16" rx="8" fill="#EFE6D2" stroke="#141414" stroke-width="5"/><circle cx="-29" cy="0" r="13" fill="#EFE6D2" stroke="#141414" stroke-width="5"/><circle cx="29" cy="0" r="13" fill="#EFE6D2" stroke="#141414" stroke-width="5"/></g>
<g transform="translate(-154,-125) rotate(2)"><rect x="-33" y="-8" width="66" height="16" rx="8" fill="#EFE6D2" stroke="#141414" stroke-width="5"/><circle cx="-33" cy="0" r="13" fill="#EFE6D2" stroke="#141414" stroke-width="5"/><circle cx="33" cy="0" r="13" fill="#EFE6D2" stroke="#141414" stroke-width="5"/></g>
<g transform="translate(149,-124) rotate(-3) scale(1.1)"><path d="M -30,6 C -34,-6 -24,-16 -8,-18 C 6,-20 20,-14 26,-2 C 20,2 10,-2 0,2 C -10,6 -20,10 -30,6 Z" fill="#EFE6D2" stroke="#141414" stroke-width="4.4" stroke-linejoin="round"/></g>
<path d="M -31,0 Q 0,-18 31,0" transform="translate(-34,-146) rotate(-9)" fill="none" stroke="#141414" stroke-width="10" stroke-linecap="round"/><path d="M -31,0 Q 0,-18 31,0" transform="translate(-34,-146) rotate(-9)" fill="none" stroke="#EFE6D2" stroke-width="6" stroke-linecap="round"/>
<g transform="translate(33,-151) rotate(-10) scale(1.1)"><path d="M -30,6 C -34,-6 -24,-16 -8,-18 C 6,-20 20,-14 26,-2 C 20,2 10,-2 0,2 C -10,6 -20,10 -30,6 Z" fill="#EFE6D2" stroke="#141414" stroke-width="4.6" stroke-linejoin="round"/></g>
<g transform="translate(-85,-144) rotate(0)"><rect x="-33" y="-8" width="66" height="16" rx="8" fill="#EFE6D2" stroke="#141414" stroke-width="5"/><circle cx="-33" cy="0" r="13" fill="#EFE6D2" stroke="#141414" stroke-width="5"/><circle cx="33" cy="0" r="13" fill="#EFE6D2" stroke="#141414" stroke-width="5"/></g>
<g transform="translate(83,-145) rotate(-11) scale(1.1)"><path d="M -30,6 C -34,-6 -24,-16 -8,-18 C 6,-20 20,-14 26,-2 C 20,2 10,-2 0,2 C -10,6 -20,10 -30,6 Z" fill="#EFE6D2" stroke="#141414" stroke-width="4.4" stroke-linejoin="round"/></g>
<g transform="translate(-140,-144) rotate(-6) scale(1.1)"><path d="M -30,6 C -34,-6 -24,-16 -8,-18 C 6,-20 20,-14 26,-2 C 20,2 10,-2 0,2 C -10,6 -20,10 -30,6 Z" fill="#EFE6D2" stroke="#141414" stroke-width="4.4" stroke-linejoin="round"/></g>
<g transform="translate(136,-149) rotate(1) scale(1.1)"><path d="M -30,6 C -34,-6 -24,-16 -8,-18 C 6,-20 20,-14 26,-2 C 20,2 10,-2 0,2 C -10,6 -20,10 -30,6 Z" fill="#EFE6D2" stroke="#141414" stroke-width="4.7" stroke-linejoin="round"/></g>
<g transform="translate(-29,-169) rotate(6)"><rect x="-31" y="-8" width="62" height="16" rx="8" fill="#EFE6D2" stroke="#141414" stroke-width="5"/><circle cx="-31" cy="0" r="13" fill="#EFE6D2" stroke="#141414" stroke-width="5"/><circle cx="31" cy="0" r="13" fill="#EFE6D2" stroke="#141414" stroke-width="5"/></g>
<g transform="translate(30,-175) rotate(0) scale(1.1)"><path d="M -30,6 C -34,-6 -24,-16 -8,-18 C 6,-20 20,-14 26,-2 C 20,2 10,-2 0,2 C -10,6 -20,10 -30,6 Z" fill="#EFE6D2" stroke="#141414" stroke-width="4.6" stroke-linejoin="round"/></g>
<g transform="translate(-84,-169) rotate(-1)"><rect x="-31" y="-8" width="62" height="16" rx="8" fill="#EFE6D2" stroke="#141414" stroke-width="5"/><circle cx="-31" cy="0" r="13" fill="#EFE6D2" stroke="#141414" stroke-width="5"/><circle cx="31" cy="0" r="13" fill="#EFE6D2" stroke="#141414" stroke-width="5"/></g>
<g transform="translate(80,-167) rotate(12) scale(0.9)"><path d="M -30,6 C -34,-6 -24,-16 -8,-18 C 6,-20 20,-14 26,-2 C 20,2 10,-2 0,2 C -10,6 -20,10 -30,6 Z" fill="#EFE6D2" stroke="#141414" stroke-width="5.4" stroke-linejoin="round"/></g>
<path d="M -28,0 Q 0,-21 28,0" transform="translate(-129,-172) rotate(-4)" fill="none" stroke="#141414" stroke-width="10" stroke-linecap="round"/><path d="M -28,0 Q 0,-21 28,0" transform="translate(-129,-172) rotate(-4)" fill="none" stroke="#EFE6D2" stroke-width="6" stroke-linecap="round"/>
<g transform="translate(135,-172) rotate(94)"><rect x="-32" y="-8" width="64" height="16" rx="8" fill="#EFE6D2" stroke="#141414" stroke-width="5"/><circle cx="-32" cy="0" r="13" fill="#EFE6D2" stroke="#141414" stroke-width="5"/><circle cx="32" cy="0" r="13" fill="#EFE6D2" stroke="#141414" stroke-width="5"/></g>
<g transform="translate(-27,-193) rotate(-7)"><rect x="-28" y="-8" width="56" height="16" rx="8" fill="#EFE6D2" stroke="#141414" stroke-width="5"/><circle cx="-28" cy="0" r="13" fill="#EFE6D2" stroke="#141414" stroke-width="5"/><circle cx="28" cy="0" r="13" fill="#EFE6D2" stroke="#141414" stroke-width="5"/></g>
<path d="M -27,0 Q 0,-22 27,0" transform="translate(25,-191) rotate(5)" fill="none" stroke="#141414" stroke-width="10" stroke-linecap="round"/><path d="M -27,0 Q 0,-22 27,0" transform="translate(25,-191) rotate(5)" fill="none" stroke="#EFE6D2" stroke-width="6" stroke-linecap="round"/>
<g transform="translate(-88,-200) rotate(-9)"><rect x="-30" y="-8" width="60" height="16" rx="8" fill="#EFE6D2" stroke="#141414" stroke-width="5"/><circle cx="-30" cy="0" r="13" fill="#EFE6D2" stroke="#141414" stroke-width="5"/><circle cx="30" cy="0" r="13" fill="#EFE6D2" stroke="#141414" stroke-width="5"/></g>
<path d="M -29,0 Q 0,-17 29,0" transform="translate(87,-195) rotate(2)" fill="none" stroke="#141414" stroke-width="10" stroke-linecap="round"/><path d="M -29,0 Q 0,-17 29,0" transform="translate(87,-195) rotate(2)" fill="none" stroke="#EFE6D2" stroke-width="6" stroke-linecap="round"/>
<g transform="translate(-28,-222) rotate(-12)"><rect x="-29" y="-8" width="58" height="16" rx="8" fill="#EFE6D2" stroke="#141414" stroke-width="5"/><circle cx="-29" cy="0" r="13" fill="#EFE6D2" stroke="#141414" stroke-width="5"/><circle cx="29" cy="0" r="13" fill="#EFE6D2" stroke="#141414" stroke-width="5"/></g>
<g transform="translate(27,-214) rotate(98)"><rect x="-25" y="-8" width="50" height="16" rx="8" fill="#EFE6D2" stroke="#141414" stroke-width="5"/><circle cx="-25" cy="0" r="13" fill="#EFE6D2" stroke="#141414" stroke-width="5"/><circle cx="25" cy="0" r="13" fill="#EFE6D2" stroke="#141414" stroke-width="5"/></g>
<path d="M -30,0 Q 0,-14 30,0" transform="translate(-76,-215) rotate(-4)" fill="none" stroke="#141414" stroke-width="10" stroke-linecap="round"/><path d="M -30,0 Q 0,-14 30,0" transform="translate(-76,-215) rotate(-4)" fill="none" stroke="#EFE6D2" stroke-width="6" stroke-linecap="round"/>
<path d="M -30,0 Q 0,-21 30,0" transform="translate(78,-213) rotate(4)" fill="none" stroke="#141414" stroke-width="10" stroke-linecap="round"/><path d="M -30,0 Q 0,-21 30,0" transform="translate(78,-213) rotate(4)" fill="none" stroke="#EFE6D2" stroke-width="6" stroke-linecap="round"/>
<path d="M -58,0 C -66,-46 -66,-96 -48,-132 C -36,-156 -14,-168 4,-160 C -6,-152 -18,-134 -22,-110 C -27,-82 -25,-48 -18,-12 C -18,-4 -30,2 -40,2 C -48,2 -54,1 -58,0 Z" fill="#EFE6D2" stroke="#141414" stroke-width="7" stroke-linejoin="round"/>
<path d="M 58,0 C 66,-46 66,-96 48,-132 C 36,-156 14,-168 -4,-160 C 6,-152 18,-134 22,-110 C 27,-82 25,-48 18,-12 C 18,-4 30,2 40,2 C 48,2 54,1 58,0 Z" fill="#EFE6D2" stroke="#141414" stroke-width="7" stroke-linejoin="round"/>
<path d="M -6,-158 C -2,-166 2,-166 6,-158 C 3,-152 -3,-152 -6,-158 Z" fill="#EFE6D2" stroke="#141414" stroke-width="6" stroke-linejoin="round"/>
<path d="M -30,0 C -32,-40 -28,-75 0,-90 C 28,-75 32,-40 30,0 Z" fill="#3A2A1A" stroke="#141414" stroke-width="6" stroke-linejoin="round"/>
</g>
</svg>
